<?xml version="1.0" encoding="UTF-8" ?>
<svg version="1.1" width="22" height="33" xmlns="http://www.w3.org/2000/svg" shape-rendering="crispEdges">
<rect x="0" y="0" width="1" height="1" fill="#090D0A" />
<rect x="1" y="0" width="20" height="1" fill="#0E140F" />
<rect x="21" y="0" width="1" height="1" fill="#0C110D" />
<rect x="0" y="1" width="1" height="2" fill="#141B15" />
<rect x="1" y="1" width="1" height="2" fill="#29332B" />
<rect x="2" y="1" width="1" height="1" fill="#1C241D" />
<rect x="3" y="1" width="4" height="1" fill="#39453B" />
<rect x="7" y="1" width="1" height="1" fill="#49594D" />
<rect x="8" y="1" width="3" height="1" fill="#596C5D" />
<rect x="11" y="1" width="1" height="1" fill="#29332B" />
<rect x="12" y="1" width="4" height="1" fill="#39453B" />
<rect x="16" y="1" width="1" height="1" fill="#1C241D" />
<rect x="17" y="1" width="1" height="1" fill="#29332B" />
<rect x="18" y="1" width="1" height="1" fill="#39453B" />
<rect x="19" y="1" width="1" height="1" fill="#1C241D" />
<rect x="20" y="1" width="1" height="1" fill="#29332B" />
<rect x="21" y="1" width="1" height="1" fill="#141B15" />
<rect x="2" y="2" width="1" height="3" fill="#0E140F" />
<rect x="3" y="2" width="1" height="1" fill="#39453B" />
<rect x="4" y="2" width="1" height="3" fill="#1C241D" />
<rect x="5" y="2" width="2" height="1" fill="#49594D" />
<rect x="7" y="2" width="1" height="1" fill="#596C5D" />
<rect x="8" y="2" width="1" height="1" fill="#39453B" />
<rect x="9" y="2" width="1" height="4" fill="#596C5D" />
<rect x="10" y="2" width="1" height="8" fill="#29332B" />
<rect x="11" y="2" width="1" height="1" fill="#39453B" />
<rect x="12" y="2" width="1" height="10" fill="#596C5D" />
<rect x="13" y="2" width="1" height="30" fill="#1C241D" />
<rect x="14" y="2" width="1" height="1" fill="#29332B" />
<rect x="15" y="2" width="1" height="4" fill="#39453B" />
<rect x="16" y="2" width="2" height="2" fill="#141B15" />
<rect x="18" y="2" width="1" height="1" fill="#29332B" />
<rect x="19" y="2" width="1" height="3" fill="#0E140F" />
<rect x="20" y="2" width="1" height="3" fill="#1C241D" />
<rect x="21" y="2" width="1" height="30" fill="#0E140F" />
<rect x="0" y="3" width="1" height="28" fill="#0E140F" />
<rect x="1" y="3" width="1" height="4" fill="#1C241D" />
<rect x="3" y="3" width="1" height="4" fill="#29332B" />
<rect x="5" y="3" width="1" height="1" fill="#1C241D" />
<rect x="6" y="3" width="1" height="1" fill="#49594D" />
<rect x="7" y="3" width="1" height="3" fill="#141B15" />
<rect x="8" y="3" width="1" height="3" fill="#29332B" />
<rect x="11" y="3" width="1" height="5" fill="#49594D" />
<rect x="14" y="3" width="1" height="2" fill="#1C241D" />
<rect x="18" y="3" width="1" height="2" fill="#1C241D" />
<rect x="5" y="4" width="1" height="1" fill="#141B15" />
<rect x="6" y="4" width="1" height="5" fill="#39453B" />
<rect x="16" y="4" width="1" height="28" fill="#141B15" />
<rect x="17" y="4" width="1" height="1" fill="#1C241D" />
<rect x="2" y="5" width="1" height="2" fill="#141B15" />
<rect x="4" y="5" width="1" height="8" fill="#141B15" />
<rect x="5" y="5" width="1" height="1" fill="#29332B" />
<rect x="14" y="5" width="1" height="6" fill="#29332B" />
<rect x="17" y="5" width="1" height="2" fill="#141B15" />
<rect x="18" y="5" width="1" height="8" fill="#29332B" />
<rect x="19" y="5" width="2" height="1" fill="#141B15" />
<rect x="5" y="6" width="1" height="4" fill="#1C241D" />
<rect x="7" y="6" width="1" height="2" fill="#1C241D" />
<rect x="8" y="6" width="1" height="2" fill="#39453B" />
<rect x="9" y="6" width="1" height="2" fill="#49594D" />
<rect x="15" y="6" width="1" height="1" fill="#29332B" />
<rect x="19" y="6" width="1" height="1" fill="#141B15" />
<rect x="20" y="6" width="1" height="22" fill="#1C241D" />
<rect x="1" y="7" width="1" height="3" fill="#141B15" />
<rect x="2" y="7" width="1" height="1" fill="#0E140F" />
<rect x="3" y="7" width="1" height="5" fill="#39453B" />
<rect x="15" y="7" width="1" height="2" fill="#49594D" />
<rect x="17" y="7" width="1" height="2" fill="#1C241D" />
<rect x="19" y="7" width="1" height="1" fill="#0E140F" />
<rect x="2" y="8" width="1" height="5" fill="#141B15" />
<rect x="7" y="8" width="2" height="2" fill="#29332B" />
<rect x="9" y="8" width="1" height="4" fill="#596C5D" />
<rect x="11" y="8" width="1" height="6" fill="#39453B" />
<rect x="19" y="8" width="1" height="1" fill="#141B15" />
<rect x="6" y="9" width="1" height="1" fill="#1C241D" />
<rect x="15" y="9" width="1" height="16" fill="#39453B" />
<rect x="17" y="9" width="1" height="3" fill="#141B15" />
<rect x="19" y="9" width="1" height="1" fill="#0E140F" />
<rect x="1" y="10" width="1" height="14" fill="#1C241D" />
<rect x="5" y="10" width="1" height="4" fill="#29332B" />
<rect x="6" y="10" width="1" height="1" fill="#49594D" />
<rect x="7" y="10" width="1" height="14" fill="#1C241D" />
<rect x="8" y="10" width="1" height="1" fill="#29332B" />
<rect x="10" y="10" width="1" height="2" fill="#39453B" />
<rect x="19" y="10" width="1" height="4" fill="#141B15" />
<rect x="6" y="11" width="1" height="5" fill="#39453B" />
<rect x="8" y="11" width="1" height="3" fill="#39453B" />
<rect x="14" y="11" width="1" height="3" fill="#1C241D" />
<rect x="3" y="12" width="1" height="1" fill="#1C241D" />
<rect x="9" y="12" width="1" height="2" fill="#49594D" />
<rect x="10" y="12" width="1" height="4" fill="#29332B" />
<rect x="12" y="12" width="1" height="3" fill="#49594D" />
<rect x="17" y="12" width="1" height="10" fill="#1C241D" />
<rect x="2" y="13" width="1" height="3" fill="#0E140F" />
<rect x="3" y="13" width="1" height="1" fill="#29332B" />
<rect x="4" y="13" width="1" height="3" fill="#1C241D" />
<rect x="18" y="13" width="1" height="2" fill="#1C241D" />
<rect x="3" y="14" width="1" height="6" fill="#39453B" />
<rect x="5" y="14" width="1" height="1" fill="#1C241D" />
<rect x="8" y="14" width="1" height="2" fill="#29332B" />
<rect x="9" y="14" width="1" height="2" fill="#596C5D" />
<rect x="11" y="14" width="1" height="2" fill="#49594D" />
<rect x="14" y="14" width="1" height="6" fill="#29332B" />
<rect x="19" y="14" width="1" height="6" fill="#0E140F" />
<rect x="5" y="15" width="1" height="4" fill="#29332B" />
<rect x="12" y="15" width="1" height="1" fill="#596C5D" />
<rect x="18" y="15" width="1" height="4" fill="#29332B" />
<rect x="2" y="16" width="1" height="2" fill="#141B15" />
<rect x="4" y="16" width="1" height="2" fill="#141B15" />
<rect x="6" y="16" width="1" height="2" fill="#49594D" />
<rect x="8" y="16" width="1" height="2" fill="#39453B" />
<rect x="9" y="16" width="1" height="2" fill="#49594D" />
<rect x="10" y="16" width="2" height="2" fill="#39453B" />
<rect x="12" y="16" width="1" height="2" fill="#49594D" />
<rect x="2" y="18" width="1" height="3" fill="#0E140F" />
<rect x="4" y="18" width="1" height="3" fill="#1C241D" />
<rect x="6" y="18" width="1" height="5" fill="#39453B" />
<rect x="8" y="18" width="1" height="2" fill="#29332B" />
<rect x="9" y="18" width="1" height="2" fill="#596C5D" />
<rect x="10" y="18" width="1" height="4" fill="#29332B" />
<rect x="11" y="18" width="1" height="2" fill="#49594D" />
<rect x="12" y="18" width="1" height="1" fill="#596C5D" />
<rect x="5" y="19" width="1" height="1" fill="#1C241D" />
<rect x="12" y="19" width="1" height="3" fill="#49594D" />
<rect x="18" y="19" width="1" height="2" fill="#1C241D" />
<rect x="3" y="20" width="1" height="1" fill="#29332B" />
<rect x="5" y="20" width="1" height="4" fill="#29332B" />
<rect x="8" y="20" width="1" height="3" fill="#39453B" />
<rect x="9" y="20" width="1" height="2" fill="#49594D" />
<rect x="11" y="20" width="1" height="6" fill="#39453B" />
<rect x="14" y="20" width="1" height="3" fill="#1C241D" />
<rect x="19" y="20" width="1" height="4" fill="#141B15" />
<rect x="2" y="21" width="1" height="5" fill="#141B15" />
<rect x="3" y="21" width="1" height="1" fill="#1C241D" />
<rect x="4" y="21" width="1" height="8" fill="#141B15" />
<rect x="18" y="21" width="1" height="8" fill="#29332B" />
<rect x="3" y="22" width="1" height="5" fill="#39453B" />
<rect x="9" y="22" width="1" height="4" fill="#596C5D" />
<rect x="10" y="22" width="1" height="2" fill="#39453B" />
<rect x="12" y="22" width="1" height="10" fill="#596C5D" />
<rect x="17" y="22" width="1" height="3" fill="#141B15" />
<rect x="6" y="23" width="1" height="1" fill="#49594D" />
<rect x="8" y="23" width="1" height="3" fill="#29332B" />
<rect x="14" y="23" width="1" height="6" fill="#29332B" />
<rect x="1" y="24" width="1" height="3" fill="#141B15" />
<rect x="5" y="24" width="2" height="1" fill="#1C241D" />
<rect x="7" y="24" width="1" height="2" fill="#29332B" />
<rect x="10" y="24" width="1" height="8" fill="#29332B" />
<rect x="19" y="24" width="1" height="1" fill="#0E140F" />
<rect x="5" y="25" width="1" height="3" fill="#1C241D" />
<rect x="6" y="25" width="1" height="5" fill="#39453B" />
<rect x="15" y="25" width="1" height="2" fill="#49594D" />
<rect x="17" y="25" width="1" height="2" fill="#1C241D" />
<rect x="19" y="25" width="1" height="1" fill="#141B15" />
<rect x="2" y="26" width="1" height="1" fill="#0E140F" />
<rect x="7" y="26" width="1" height="2" fill="#1C241D" />
<rect x="8" y="26" width="1" height="2" fill="#39453B" />
<rect x="9" y="26" width="1" height="2" fill="#49594D" />
<rect x="11" y="26" width="1" height="5" fill="#49594D" />
<rect x="19" y="26" width="1" height="1" fill="#0E140F" />
<rect x="1" y="27" width="1" height="4" fill="#1C241D" />
<rect x="2" y="27" width="1" height="2" fill="#141B15" />
<rect x="3" y="27" width="1" height="4" fill="#29332B" />
<rect x="15" y="27" width="1" height="1" fill="#29332B" />
<rect x="17" y="27" width="1" height="2" fill="#141B15" />
<rect x="19" y="27" width="1" height="2" fill="#141B15" />
<rect x="5" y="28" width="1" height="1" fill="#29332B" />
<rect x="7" y="28" width="1" height="3" fill="#141B15" />
<rect x="8" y="28" width="1" height="3" fill="#29332B" />
<rect x="9" y="28" width="1" height="5" fill="#596C5D" />
<rect x="15" y="28" width="1" height="5" fill="#39453B" />
<rect x="20" y="28" width="1" height="1" fill="#141B15" />
<rect x="2" y="29" width="1" height="3" fill="#0E140F" />
<rect x="4" y="29" width="1" height="3" fill="#1C241D" />
<rect x="5" y="29" width="1" height="1" fill="#141B15" />
<rect x="14" y="29" width="1" height="2" fill="#1C241D" />
<rect x="17" y="29" width="2" height="1" fill="#1C241D" />
<rect x="19" y="29" width="1" height="3" fill="#0E140F" />
<rect x="20" y="29" width="1" height="3" fill="#1C241D" />
<rect x="5" y="30" width="1" height="1" fill="#1C241D" />
<rect x="6" y="30" width="1" height="2" fill="#49594D" />
<rect x="17" y="30" width="1" height="2" fill="#141B15" />
<rect x="18" y="30" width="1" height="1" fill="#1C241D" />
<rect x="0" y="31" width="1" height="2" fill="#141B15" />
<rect x="1" y="31" width="1" height="2" fill="#29332B" />
<rect x="3" y="31" width="1" height="2" fill="#39453B" />
<rect x="5" y="31" width="1" height="1" fill="#49594D" />
<rect x="7" y="31" width="1" height="1" fill="#596C5D" />
<rect x="8" y="31" width="1" height="1" fill="#39453B" />
<rect x="11" y="31" width="1" height="1" fill="#39453B" />
<rect x="14" y="31" width="1" height="1" fill="#29332B" />
<rect x="18" y="31" width="1" height="1" fill="#29332B" />
<rect x="2" y="32" width="1" height="1" fill="#1C241D" />
<rect x="4" y="32" width="3" height="1" fill="#39453B" />
<rect x="7" y="32" width="1" height="1" fill="#49594D" />
<rect x="8" y="32" width="1" height="1" fill="#596C5D" />
<rect x="10" y="32" width="1" height="1" fill="#596C5D" />
<rect x="11" y="32" width="1" height="1" fill="#29332B" />
<rect x="12" y="32" width="3" height="1" fill="#39453B" />
<rect x="16" y="32" width="1" height="1" fill="#1C241D" />
<rect x="17" y="32" width="1" height="1" fill="#29332B" />
<rect x="18" y="32" width="1" height="1" fill="#39453B" />
<rect x="19" y="32" width="1" height="1" fill="#1C241D" />
<rect x="20" y="32" width="1" height="1" fill="#29332B" />
<rect x="21" y="32" width="1" height="1" fill="#141B15" />
</svg>